<svg xmlns="http://www.w3.org/2000/svg" width="209.55" height="121.433" viewBox="0 0 209.55 121.433"><g transform="translate(471.542 -331.704)"><g transform="translate(-471.542 331.704)"><g transform="translate(0 43.133)"><path d="M-444.02,437.1a8.261,8.261,0,0,0-5.447-7.533l-2.008-.6,1.94-.792a7.769,7.769,0,0,0,4.228-6.527,9.343,9.343,0,0,0-9.358-9.306H-470.5a1.046,1.046,0,0,0-1.046,1.046v31.987a1.046,1.046,0,0,0,1.047,1.046l17.118-.016A9.342,9.342,0,0,0-444.02,437.1Zm-18.388-16.19h4.653a2.234,2.234,0,0,1,2.231,2.232,2.236,2.236,0,0,1-2.231,2.18h-4.653Zm5.271,17.135h-5.271v-4.928h5.271a2.463,2.463,0,0,1,2.489,2.489A2.467,2.467,0,0,1-457.137,438.049Z" transform="translate(471.542 -411.575)" fill="#043b5d"/><path d="M-107.7,435.223c0-7.974-6.976-9.874-11.593-11.132-2.343-.638-3.757-1.023-3.757-2.209a1.9,1.9,0,0,1,.813-1.61c1.929-1.383,7.1,0,9.861.884a.781.781,0,0,0,.967-.463l2.584-6.653a.779.779,0,0,0-.467-1.015,27.694,27.694,0,0,0-9.878-2.1c-8.185,0-13.684,4.506-13.684,11.212,0,7.946,6.949,9.866,11.548,11.137,2.37.655,3.8,1.05,3.8,2.255a1.9,1.9,0,0,1-.813,1.609c-1.934,1.388-7.126,0-9.883-.89a.774.774,0,0,0-.96.461l-2.571,6.662a.779.779,0,0,0,.467,1.014c3.6,1.281,6.357,2.1,9.88,2.1C-113.2,446.486-107.7,441.959-107.7,435.223Z" transform="translate(317.248 -410.928)" fill="#043b5d"/><path d="M-387.916,413.388a1.046,1.046,0,0,0-1.045-1.046c-2.187,0-7.043,0-7.043,0a1.049,1.049,0,0,0-1.046,1.046v19.334c0,3.621-2.244,4.91-4.344,4.91s-4.344-1.3-4.344-4.961V413.39a1.046,1.046,0,0,0-1.046-1.046h-7.042a1.049,1.049,0,0,0-1.046,1.046v21.7c.091,7.195,5.507,12.035,13.478,12.035,9.311,0,13.478-6.045,13.478-12.035Z" transform="translate(445.725 -411.572)" fill="#043b5d"/></g><path d="M-334.331,434.424a12.424,12.424,0,0,0,4.52-9.436,12.649,12.649,0,0,0-12.684-12.64h-12.811a1.065,1.065,0,0,0-1.067,1.063c-.009,5.062-.026,26.8-.03,31.965a1.039,1.039,0,0,0,1.041,1.04h7.1a1.046,1.046,0,0,0,1.046-1.046v-8.486h3.641l3.052,9.211a.564.564,0,0,0,.484.319h8.335a.879.879,0,0,0,.825-1.183l-3.853-10.471Zm-8.712-6.315h-4.176v-6.626h4.292a3.317,3.317,0,0,1,3.306,3.539A3.391,3.391,0,0,1-343.042,428.108Z" transform="translate(419.089 -368.442)" fill="#043b5d"/><path d="M-164.419,434.278a12.422,12.422,0,0,0,4.52-9.436,12.648,12.648,0,0,0-12.684-12.64h-12.811a1.065,1.065,0,0,0-1.067,1.062c-.009,5.062-.026,26.8-.03,31.965a1.039,1.039,0,0,0,1.04,1.04h7.1a1.046,1.046,0,0,0,1.046-1.046v-8.486h3.641l3.052,9.21a.564.564,0,0,0,.484.319h8.335a.88.88,0,0,0,.825-1.183l-3.853-10.472Zm-8.712-6.316h-4.175v-6.626h4.292a3.317,3.317,0,0,1,3.306,3.54A3.39,3.39,0,0,1-173.131,427.962Z" transform="translate(341.684 -368.375)" fill="#043b5d"/><g transform="translate(91.89 43.081)"><path d="M-258.676,430.018l-.1-.025C-258.744,430-258.711,430.012-258.676,430.018Z" transform="translate(282.725 -419.562)" fill="#043b5d"/><path d="M-271.621,425.41h-14.214a.169.169,0,0,0-.071.035l1.1,7.533a.309.309,0,0,0,.106.021h4.549v3.24l-.584.125a21.79,21.79,0,0,1-4.223.583c-4.371,0-7.795-3.65-7.795-8.31,0-4.688,3.423-8.361,7.795-8.361a29.071,29.071,0,0,1,5.754.892c.132.031.26.064.389.1l.1.025a1.744,1.744,0,0,0,.322.033,1.747,1.747,0,0,0,1.647-1.172l.009,0c.691-1.857,1.826-4.9,2.293-6.172a1.048,1.048,0,0,0-.669-1.362,35.874,35.874,0,0,0-9.847-1.779,17.825,17.825,0,0,0-17.8,17.8,17.825,17.825,0,0,0,17.8,17.8c5.229,0,11.25-2.17,12.971-2.835a.5.5,0,0,0,.4-.547V425.434A.1.1,0,0,0-271.621,425.41Z" transform="translate(302.763 -410.833)" fill="#043b5d"/></g><path d="M-215.291,437.276H-228.73v-4.1l8.208,0a.732.732,0,0,0,.727-.643l.744-6.122a.732.732,0,0,0-.727-.82h-8.952v-4.1h12.862a1.046,1.046,0,0,0,1.046-1.046v-7.042a1.046,1.046,0,0,0-1.046-1.046h-20.951a1.049,1.049,0,0,0-1.046,1.046v31.972a1.046,1.046,0,0,0,1.046,1.046h21.527a1.047,1.047,0,0,0,1.046-1.046v-7.042A1.047,1.047,0,0,0-215.291,437.276Z" transform="translate(365.088 -368.442)" fill="#043b5d"/><g transform="translate(82.927)"><path d="M-310.7,363.777c-1.356,3.011-3.162,4.14-3.614,3.689s-.753-1.656.226-3.614,2.936-1.958,3.99-2.184a1.321,1.321,0,0,1,.235-.025c-.351.951-.639,1.692-.837,2.134m16.337.3c-4.859,0-7.465-1.128-11.769-3.184,2.271-5.956,7.3-19.358,8.531-21.887,1.506-3.087,2.259-4.066,4.442-4.066s0,7.077,0,7.077a10.2,10.2,0,0,0,2.635-6.625c0-.9-1.656-3.614-5.044-3.689s-5.872,5.722-7.077,8.959c-.91,2.446-4.27,12.671-6.442,18.823l-.484-.227c-6.625-3.087-9.11,2.409-9.562,4.517s.753,6.173,4.592,6.173,6.475-4.216,7.378-6.4c.079-.192.207-.517.374-.948a11.12,11.12,0,0,0,1.132.421c1.167.328,9.561,4.065,14.681,3.689s7.529-7.83,7.529-7.83-4.894,5.2-10.917,5.2" transform="translate(319.226 -331.704)" fill="#db1e25"/><path d="M-261.057,359.015c-.482-.293,0-.978.151-1.154s.928-.351.451,1.154a2.047,2.047,0,0,1-.1.252c-.247-.122-.426-.206-.5-.252m1.669.883c1.094-1.621,1.824-3.57-.414-3.241-2.763.406-1.991,2.686-1.4,3.554a19.157,19.157,0,0,1-2.871,2.569,6.761,6.761,0,0,0,3.037-.979,6.367,6.367,0,0,0,.979-1.008,2.677,2.677,0,0,1,1.355,3.091,2.917,2.917,0,0,1-3.614,2.685c-1.029-.125-2.534-2.66-2.534-2.66-.352,3.313,1.254,6,3.237,5.747s5.019-1.657,5.446-5.044c.279-2.214-1.691-3.8-3.224-4.715" transform="translate(294.475 -343.055)" fill="#db1e25"/><path d="M-279.7,368.423s.678-5.27,2.761-5.245,0,2.735-.251,3.137a8.078,8.078,0,0,1-2.51,2.108m3.84-1.806a8.575,8.575,0,0,0,1.707-4.166,1.537,1.537,0,0,0-1.87-1.405,9.094,9.094,0,0,0-6.789,5.872c-1.958,4.868,1.129,6.073,1.455,6.2a6.126,6.126,0,0,0,5.333-1.707,5.04,5.04,0,0,0,1.871-4.643s-1.357,2.861-3.114,3.464a1.446,1.446,0,0,1-2.008-1.23,11.962,11.962,0,0,0,3.413-2.384" transform="translate(302.933 -345.058)" fill="#db1e25"/></g></g><g transform="translate(-444.866 417.494)"><path d="M-395.636,506.879c2.681.1,0,5.189-3.368,6.942,0,0,.688-7.045,3.368-6.942m-16.565,8.488c-1.237,3.677-3.127,5.258-4.811,5.258s-1.478-3.746-1.478-3.746.069-4.5,3.471-4.468,2.818,2.956,2.818,2.956m15.121,1.306c-.979,0-1.34-1.856-1.34-1.856,1.959-.825,4.743-4.279,5.361-5.207s2.765-5.349-.464-5.722c-2.973-.344-6.181,2.179-8.368,5.258a11.418,11.418,0,0,0-1.736,8.454,2.808,2.808,0,0,1-2.577,1.34c-1.6-.258-1.186-3.4-1.186-3.4l5.619-22.578s1.186-3.351-1.753-3.66-5.877,2.835-5.877,2.835c3.814,0,3.041,3.144,3.041,3.144L-410.895,511s-1.186-2.524-2.423-2.576-2.165.1-5.206,2.576a10.969,10.969,0,0,0-4.021,8.353c.005,1.246,1.34,5.619,5,5.567s5.929-6.444,5.929-6.444a4.837,4.837,0,0,0,4.948,3.815c1.908-.31,3.094-3.918,3.094-3.918a12.142,12.142,0,0,0,1.907,1.753s2.938,1.134,6.341-1.5a9.051,9.051,0,0,0,3.5-6.392c-1.444,2.371-4.278,4.433-5.257,4.433" transform="translate(422.545 -489.279)" fill="#db1e25"/><path d="M-286.948,490.2l-7.807-.035a.784.784,0,0,0-.744.524l-11.514,32.69a.636.636,0,0,0,.6.847h8.081a.462.462,0,0,0,.4-.224l1.187-3.613a.637.637,0,0,1,.6-.437h10.552a.636.636,0,0,1,.6.437L-283.8,524a.462.462,0,0,0,.4.224h8.082a.636.636,0,0,0,.6-.847l-11.5-32.655A.785.785,0,0,0-286.948,490.2Zm-7.562,23.295,3.648-11.084,3.647,11.084Z" transform="translate(369.93 -489.682)" fill="#043b5d"/><path d="M-339.871,490.158h-13.412a.732.732,0,0,0-.732.732v32.6a.732.732,0,0,0,.732.732h7.724a.732.732,0,0,0,.732-.732l0-7.019a.078.078,0,0,1,.078-.078h5.141A13.132,13.132,0,0,0-326.5,502.974,13.288,13.288,0,0,0-339.871,490.158Zm-.666,16.483h-4.214a.078.078,0,0,1-.078-.078v-6.574a.078.078,0,0,1,.078-.078h4.214a3.4,3.4,0,0,1,3.416,3.365A3.355,3.355,0,0,1-340.537,506.641Z" transform="translate(391.326 -489.679)" fill="#043b5d"/><path d="M-175.008,490.2l-7.807-.035a.784.784,0,0,0-.744.524l-11.514,32.69a.636.636,0,0,0,.6.847h8.081a.462.462,0,0,0,.4-.224l1.187-3.613a.636.636,0,0,1,.6-.437h10.553a.636.636,0,0,1,.6.437l1.188,3.613a.46.46,0,0,0,.4.224h8.082a.636.636,0,0,0,.6-.847l-11.5-32.655A.785.785,0,0,0-175.008,490.2Zm-7.561,23.295,3.647-11.084,3.647,11.084Z" transform="translate(318.934 -489.682)" fill="#043b5d"/><path d="M-227.93,490.158h-13.412a.732.732,0,0,0-.732.732v32.6a.732.732,0,0,0,.732.732h7.723a.732.732,0,0,0,.732-.732l0-7.019a.078.078,0,0,1,.078-.078h5.141a13.132,13.132,0,0,0,13.114-13.419A13.287,13.287,0,0,0-227.93,490.158Zm-.666,16.483h-4.214a.078.078,0,0,1-.078-.078v-6.574a.078.078,0,0,1,.078-.078h4.214a3.4,3.4,0,0,1,3.417,3.365A3.356,3.356,0,0,1-228.6,506.641Z" transform="translate(340.33 -489.679)" fill="#043b5d"/></g></g></svg>